<svg xmlns="http://www.w3.org/2000/svg"><symbol id="mecha-stilts" viewBox="0 0 193 223"><path fill="#fff" d="M90.7 137.1h11.5v11.34H90.7zm-21.6 0h18v11.34h-18zm36.8 0h18v11.34h-18zM96.5 62c-21.1 0-38.7 12.8-39.6 36h79.2c-.9-23.2-18.5-36-39.6-36zM54 137.1h11.5v11.34H54zm-10.8-3.6h106.6v-31.9H43.2zm52.4-12.3h43.9a1.8 1.8 0 1 1 0 3.6H95.6a1.8 1.8 0 0 1 0-3.6z"/><path fill="#fff" d="M96.5 1.9L1.6 56.7v109.6l94.9 54.8 94.9-54.8V56.7zm56.9 133.4a1.7 1.7 0 0 1-1.8 1.8h-9v11.3h9a1.8 1.8 0 1 1 0 3.6H41.4a1.8 1.8 0 1 1 0-3.6h9v-11.3h-9a1.7 1.7 0 0 1-1.8-1.8V99.8a1.7 1.7 0 0 1 1.8-1.8h11.9c.9-25.6 20-39.6 43.2-39.6s42.3 14 43.2 39.6h11.9a1.7 1.7 0 0 1 1.8 1.8z"/><path fill="#fff" d="M127.5 137.1H139v11.34h-11.5z"/></symbol><symbol id="space-bubbles" viewBox="0 0 193 223"><path fill="#fff" d="M70.2 130.2H58.3l-15.8 18.7 2.5 3.6 30.4-16-5.2-6.3zm64.1-16.5a45.2 45.2 0 0 0 2.2-13.7 39 39 0 0 0-78 0c0 4.7.4 9.5 2.2 13.7zm-86 3.6h98.5v9.36H48.3zm26.6 12.9L90 148.4h13l15.1-18.2H74.9zm-14 18.2h24.4l-7.3-9-17.1 9z"/><path fill="#fff" d="M96.5 1.9L1.6 56.7v109.6l94.9 54.8 94.9-54.8V56.7zM154.1 150l-4.1 6a2 2 0 0 1-2.4.5L139 152H53.8l-8.6 4.5a1.9 1.9 0 0 1-2.3-.5l-4.2-6a2 2 0 0 1 .2-2.1l14.9-17.7h-7.3a1.7 1.7 0 0 1-1.8-1.8v-12.9a1.7 1.7 0 0 1 1.8-1.8h10.4a49.4 49.4 0 0 1-2-13.7 42.6 42.6 0 0 1 85.2 0 45.9 45.9 0 0 1-2 13.7h10.4a1.7 1.7 0 0 1 1.8 1.8v12.9a1.7 1.7 0 0 1-1.8 1.8h-9.2l14.8 17.7a1.8 1.8 0 0 1 0 2.1z"/><path fill="#fff" d="M107.7 148.4h24.4l-17.1-9-7.3 9zm15.1-18.2l-5.4 6.3 30.6 16 2.5-3.4-15.8-18.9h-11.9z"/></symbol><symbol id="super-domes" viewBox="0 0 193 223"><path fill="#fff" d="M94.7 111.3V75l-25.9 36.3h25.9zm-48.4 17.1h48.4v19.98H46.3zm52-57.2v40.1H148a53.6 53.6 0 0 0-49.7-40.1zm0 57.2h8.1v19.98h-8.1zm-5.4-57c-23 1.4-42.3 18.1-47.9 39.9h19.3zm17.1 57h36.7v19.98H110z"/><path fill="#fff" d="M96.5 1.9L1.6 56.7v109.6l94.9 54.8 94.9-54.8V56.7zm77.6 126.5h-23.8v21.8a1.7 1.7 0 0 1-1.8 1.8h-104a1.7 1.7 0 0 1-1.8-1.8v-21.8H18.9a1.8 1.8 0 1 1 0-3.6h13.5v-11.7a1.7 1.7 0 0 1 1.8-1.8h7a57.2 57.2 0 0 1 55.1-43.7c.2-.2.4-.2.7 0a57 57 0 0 1 54.8 43.7h7a1.7 1.7 0 0 1 1.8 1.8v11.7h13.5a1.8 1.8 0 1 1 0 3.6z"/><path fill="#fff" d="M36 114.9h121v9.9H36z"/></symbol><symbol id="mecha-stilts" viewBox="0 0 193 223"><path fill="#fff" d="M90.7 137.1h11.5v11.34H90.7zm-21.6 0h18v11.34h-18zm36.8 0h18v11.34h-18zM96.5 62c-21.1 0-38.7 12.8-39.6 36h79.2c-.9-23.2-18.5-36-39.6-36zM54 137.1h11.5v11.34H54zm-10.8-3.6h106.6v-31.9H43.2zm52.4-12.3h43.9a1.8 1.8 0 1 1 0 3.6H95.6a1.8 1.8 0 0 1 0-3.6z"/><path fill="#fff" d="M96.5 1.9L1.6 56.7v109.6l94.9 54.8 94.9-54.8V56.7zm56.9 133.4a1.7 1.7 0 0 1-1.8 1.8h-9v11.3h9a1.8 1.8 0 1 1 0 3.6H41.4a1.8 1.8 0 1 1 0-3.6h9v-11.3h-9a1.7 1.7 0 0 1-1.8-1.8V99.8a1.7 1.7 0 0 1 1.8-1.8h11.9c.9-25.6 20-39.6 43.2-39.6s42.3 14 43.2 39.6h11.9a1.7 1.7 0 0 1 1.8 1.8z"/><path fill="#fff" d="M127.5 137.1H139v11.34h-11.5z"/></symbol><symbol id="space-bubbles" viewBox="0 0 193 223"><path fill="#fff" d="M70.2 130.2H58.3l-15.8 18.7 2.5 3.6 30.4-16-5.2-6.3zm64.1-16.5a45.2 45.2 0 0 0 2.2-13.7 39 39 0 0 0-78 0c0 4.7.4 9.5 2.2 13.7zm-86 3.6h98.5v9.36H48.3zm26.6 12.9L90 148.4h13l15.1-18.2H74.9zm-14 18.2h24.4l-7.3-9-17.1 9z"/><path fill="#fff" d="M96.5 1.9L1.6 56.7v109.6l94.9 54.8 94.9-54.8V56.7zM154.1 150l-4.1 6a2 2 0 0 1-2.4.5L139 152H53.8l-8.6 4.5a1.9 1.9 0 0 1-2.3-.5l-4.2-6a2 2 0 0 1 .2-2.1l14.9-17.7h-7.3a1.7 1.7 0 0 1-1.8-1.8v-12.9a1.7 1.7 0 0 1 1.8-1.8h10.4a49.4 49.4 0 0 1-2-13.7 42.6 42.6 0 0 1 85.2 0 45.9 45.9 0 0 1-2 13.7h10.4a1.7 1.7 0 0 1 1.8 1.8v12.9a1.7 1.7 0 0 1-1.8 1.8h-9.2l14.8 17.7a1.8 1.8 0 0 1 0 2.1z"/><path fill="#fff" d="M107.7 148.4h24.4l-17.1-9-7.3 9zm15.1-18.2l-5.4 6.3 30.6 16 2.5-3.4-15.8-18.9h-11.9z"/></symbol><symbol id="super-domes" viewBox="0 0 193 223"><path fill="#fff" d="M94.7 111.3V75l-25.9 36.3h25.9zm-48.4 17.1h48.4v19.98H46.3zm52-57.2v40.1H148a53.6 53.6 0 0 0-49.7-40.1zm0 57.2h8.1v19.98h-8.1zm-5.4-57c-23 1.4-42.3 18.1-47.9 39.9h19.3zm17.1 57h36.7v19.98H110z"/><path fill="#fff" d="M96.5 1.9L1.6 56.7v109.6l94.9 54.8 94.9-54.8V56.7zm77.6 126.5h-23.8v21.8a1.7 1.7 0 0 1-1.8 1.8h-104a1.7 1.7 0 0 1-1.8-1.8v-21.8H18.9a1.8 1.8 0 1 1 0-3.6h13.5v-11.7a1.7 1.7 0 0 1 1.8-1.8h7a57.2 57.2 0 0 1 55.1-43.7c.2-.2.4-.2.7 0a57 57 0 0 1 54.8 43.7h7a1.7 1.7 0 0 1 1.8 1.8v11.7h13.5a1.8 1.8 0 1 1 0 3.6z"/><path fill="#fff" d="M36 114.9h121v9.9H36z"/></symbol><symbol id="mecha-stilts" viewBox="0 0 193 223"><path fill="#fff" d="M90.7 137.1h11.5v11.34H90.7zm-21.6 0h18v11.34h-18zm36.8 0h18v11.34h-18zM96.5 62c-21.1 0-38.7 12.8-39.6 36h79.2c-.9-23.2-18.5-36-39.6-36zM54 137.1h11.5v11.34H54zm-10.8-3.6h106.6v-31.9H43.2zm52.4-12.3h43.9a1.8 1.8 0 1 1 0 3.6H95.6a1.8 1.8 0 0 1 0-3.6z"/><path fill="#fff" d="M96.5 1.9L1.6 56.7v109.6l94.9 54.8 94.9-54.8V56.7zm56.9 133.4a1.7 1.7 0 0 1-1.8 1.8h-9v11.3h9a1.8 1.8 0 1 1 0 3.6H41.4a1.8 1.8 0 1 1 0-3.6h9v-11.3h-9a1.7 1.7 0 0 1-1.8-1.8V99.8a1.7 1.7 0 0 1 1.8-1.8h11.9c.9-25.6 20-39.6 43.2-39.6s42.3 14 43.2 39.6h11.9a1.7 1.7 0 0 1 1.8 1.8z"/><path fill="#fff" d="M127.5 137.1H139v11.34h-11.5z"/></symbol><symbol id="space-bubbles" viewBox="0 0 193 223"><path fill="#fff" d="M70.2 130.2H58.3l-15.8 18.7 2.5 3.6 30.4-16-5.2-6.3zm64.1-16.5a45.2 45.2 0 0 0 2.2-13.7 39 39 0 0 0-78 0c0 4.7.4 9.5 2.2 13.7zm-86 3.6h98.5v9.36H48.3zm26.6 12.9L90 148.4h13l15.1-18.2H74.9zm-14 18.2h24.4l-7.3-9-17.1 9z"/><path fill="#fff" d="M96.5 1.9L1.6 56.7v109.6l94.9 54.8 94.9-54.8V56.7zM154.1 150l-4.1 6a2 2 0 0 1-2.4.5L139 152H53.8l-8.6 4.5a1.9 1.9 0 0 1-2.3-.5l-4.2-6a2 2 0 0 1 .2-2.1l14.9-17.7h-7.3a1.7 1.7 0 0 1-1.8-1.8v-12.9a1.7 1.7 0 0 1 1.8-1.8h10.4a49.4 49.4 0 0 1-2-13.7 42.6 42.6 0 0 1 85.2 0 45.9 45.9 0 0 1-2 13.7h10.4a1.7 1.7 0 0 1 1.8 1.8v12.9a1.7 1.7 0 0 1-1.8 1.8h-9.2l14.8 17.7a1.8 1.8 0 0 1 0 2.1z"/><path fill="#fff" d="M107.7 148.4h24.4l-17.1-9-7.3 9zm15.1-18.2l-5.4 6.3 30.6 16 2.5-3.4-15.8-18.9h-11.9z"/></symbol><symbol id="super-domes" viewBox="0 0 193 223"><path fill="#fff" d="M94.7 111.3V75l-25.9 36.3h25.9zm-48.4 17.1h48.4v19.98H46.3zm52-57.2v40.1H148a53.6 53.6 0 0 0-49.7-40.1zm0 57.2h8.1v19.98h-8.1zm-5.4-57c-23 1.4-42.3 18.1-47.9 39.9h19.3zm17.1 57h36.7v19.98H110z"/><path fill="#fff" d="M96.5 1.9L1.6 56.7v109.6l94.9 54.8 94.9-54.8V56.7zm77.6 126.5h-23.8v21.8a1.7 1.7 0 0 1-1.8 1.8h-104a1.7 1.7 0 0 1-1.8-1.8v-21.8H18.9a1.8 1.8 0 1 1 0-3.6h13.5v-11.7a1.7 1.7 0 0 1 1.8-1.8h7a57.2 57.2 0 0 1 55.1-43.7c.2-.2.4-.2.7 0a57 57 0 0 1 54.8 43.7h7a1.7 1.7 0 0 1 1.8 1.8v11.7h13.5a1.8 1.8 0 1 1 0 3.6z"/><path fill="#fff" d="M36 114.9h121v9.9H36z"/></symbol></svg>