<svg xmlns="http://www.w3.org/2000/svg" width="193" height="223" viewBox="0 0 193 223"><path d="M96.5 1.9l94.9 54.8v109.6l-94.9 54.8-94.9-54.8V56.7L96.5 1.9z"/><path fill="#fff" d="M44.5 152a1.7 1.7 0 0 1-1.8-1.8v-21.8H18.9a1.8 1.8 0 1 1 0-3.6h13.5v-11.7a1.7 1.7 0 0 1 1.8-1.8h7a57.2 57.2 0 0 1 55.1-43.7c.2-.2.4-.2.7 0a57 57 0 0 1 54.8 43.7h7a1.7 1.7 0 0 1 1.8 1.8v11.7h13.5a1.8 1.8 0 1 1 0 3.6h-23.8v21.8a1.7 1.7 0 0 1-1.8 1.8zM36 114.9v9.9h121v-9.9zm56.9-43.5c-23 1.4-42.3 18.1-47.9 39.9h19.3zm-46.6 57v20h48.4v-20zM94.7 75l-25.9 36.3h25.9zm3.6-3.8v40.1H148a53.6 53.6 0 0 0-49.7-40.1zm0 57.2v20h8.1v-20zm11.7 0v20h36.7v-20z"/></svg>