<svg xmlns="http://www.w3.org/2000/svg" id="Layer_1" width="193" height="223" viewBox="0 0 193 223"><path fill="#fff" d="M90.7 137.1h11.5v11.34H90.7zm-21.6 0h18v11.34h-18zm36.8 0h18v11.34h-18zM96.5 62c-21.1 0-38.7 12.8-39.6 36h79.2c-.9-23.2-18.5-36-39.6-36zM54 137.1h11.5v11.34H54zm-10.8-3.6h106.6v-31.9H43.2zm52.4-12.3h43.9a1.8 1.8 0 1 1 0 3.6H95.6a1.8 1.8 0 0 1 0-3.6z"/><path fill="#fff" d="M96.5 1.9L1.6 56.7v109.6l94.9 54.8 94.9-54.8V56.7zm56.9 133.4a1.7 1.7 0 0 1-1.8 1.8h-9v11.3h9a1.8 1.8 0 1 1 0 3.6H41.4a1.8 1.8 0 1 1 0-3.6h9v-11.3h-9a1.7 1.7 0 0 1-1.8-1.8V99.8a1.7 1.7 0 0 1 1.8-1.8h11.9c.9-25.6 20-39.6 43.2-39.6s42.3 14 43.2 39.6h11.9a1.7 1.7 0 0 1 1.8 1.8z"/><path fill="#fff" d="M127.5 137.1H139v11.34h-11.5z"/></svg>