<svg id="Layer_1" data-name="Layer 1" xmlns="http://www.w3.org/2000/svg" width="193" height="223" viewBox="0 0 193 223"><title>mecha-stilts</title><polygon points="96.5 1.9 191.4 56.7 191.4 166.3 96.5 221.1 1.6 166.3 1.6 56.7 96.5 1.9"/><path d="M44.5,152a1.7,1.7,0,0,1-1.8-1.8V128.4H18.9a1.8,1.8,0,1,1,0-3.6H32.4V113.1a1.7,1.7,0,0,1,1.8-1.8h7A57.2,57.2,0,0,1,96.3,67.6c.2-.2.4-.2.7,0a57,57,0,0,1,54.8,43.7h7a1.7,1.7,0,0,1,1.8,1.8v11.7h13.5a1.8,1.8,0,1,1,0,3.6H150.3v21.8a1.7,1.7,0,0,1-1.8,1.8ZM36,114.9v9.9H157v-9.9ZM92.9,71.4c-23,1.4-42.3,18.1-47.9,39.9H64.3Zm-46.6,57v20H94.7v-20ZM94.7,75,68.8,111.3H94.7Zm3.6-3.8v40.1H148A53.6,53.6,0,0,0,98.3,71.2Zm0,57.2v20h8.1v-20Zm11.7,0v20h36.7v-20Z" fill="#fff"/></svg>