<svg xmlns="http://www.w3.org/2000/svg" id="Layer_1" width="193" height="223" viewBox="0 0 193 223"><path fill="#fff" d="M70.2 130.2H58.3l-15.8 18.7 2.5 3.6 30.4-16-5.2-6.3zm64.1-16.5a45.2 45.2 0 0 0 2.2-13.7 39 39 0 0 0-78 0c0 4.7.4 9.5 2.2 13.7zm-86 3.6h98.5v9.36H48.3zm26.6 12.9L90 148.4h13l15.1-18.2H74.9zm-14 18.2h24.4l-7.3-9-17.1 9z"/><path fill="#fff" d="M96.5 1.9L1.6 56.7v109.6l94.9 54.8 94.9-54.8V56.7zM154.1 150l-4.1 6a2 2 0 0 1-2.4.5L139 152H53.8l-8.6 4.5a1.9 1.9 0 0 1-2.3-.5l-4.2-6a2 2 0 0 1 .2-2.1l14.9-17.7h-7.3a1.7 1.7 0 0 1-1.8-1.8v-12.9a1.7 1.7 0 0 1 1.8-1.8h10.4a49.4 49.4 0 0 1-2-13.7 42.6 42.6 0 0 1 85.2 0 45.9 45.9 0 0 1-2 13.7h10.4a1.7 1.7 0 0 1 1.8 1.8v12.9a1.7 1.7 0 0 1-1.8 1.8h-9.2l14.8 17.7a1.8 1.8 0 0 1 0 2.1z"/><path fill="#fff" d="M107.7 148.4h24.4l-17.1-9-7.3 9zm15.1-18.2l-5.4 6.3 30.6 16 2.5-3.4-15.8-18.9h-11.9z"/></svg>