<svg id="Layer_1" data-name="Layer 1" xmlns="http://www.w3.org/2000/svg" width="193" height="223" viewBox="0 0 193 223"><title>space-bubbles</title><polygon points="96.5 1.9 191.4 56.7 191.4 166.3 96.5 221.1 1.6 166.3 1.6 56.7 96.5 1.9"/><path d="M42.9,156l-4.2-6a2,2,0,0,1,.2-2.1l14.9-17.7H46.5a1.7,1.7,0,0,1-1.8-1.8V115.5a1.7,1.7,0,0,1,1.8-1.8H56.9a49.4,49.4,0,0,1-2-13.7,42.6,42.6,0,0,1,85.2,0,45.9,45.9,0,0,1-2,13.7h10.4a1.7,1.7,0,0,1,1.8,1.8v12.9a1.7,1.7,0,0,1-1.8,1.8h-9.2l14.8,17.7a1.8,1.8,0,0,1,0,2.1l-4.1,6a2,2,0,0,1-2.4.5L139,152H53.8l-8.6,4.5A1.9,1.9,0,0,1,42.9,156Zm27.3-25.8H58.3L42.5,148.9l2.5,3.6,30.4-16ZM48.3,117.3v9.3h98.4v-9.3Zm12.4-3.6h73.6a45.2,45.2,0,0,0,2.2-13.7,39,39,0,0,0-78,0C58.5,104.7,58.9,109.5,60.7,113.7ZM78,139.4l-17.1,9H85.3Zm-3.1-9.2L90,148.4h13l15.1-18.2Zm40.1,9.2-7.3,9h24.4Zm19.7-9.2H122.8l-5.4,6.3,30.6,16,2.5-3.4Z" fill="#fff"/></svg>