<svg xmlns="http://www.w3.org/2000/svg" width="193" height="223" viewBox="0 0 193 223"><path d="M96.5 1.9l94.9 54.8v109.6l-94.9 54.8-94.9-54.8V56.7L96.5 1.9z"/><path fill="#fff" d="M41.4 152a1.8 1.8 0 1 1 0-3.6h9v-11.3h-9a1.7 1.7 0 0 1-1.8-1.8V99.8a1.7 1.7 0 0 1 1.8-1.8h11.9c.9-25.6 20-39.6 43.2-39.6s42.3 14 43.2 39.6h11.9a1.7 1.7 0 0 1 1.8 1.8v35.5a1.7 1.7 0 0 1-1.8 1.8h-9v11.3h9a1.8 1.8 0 1 1 0 3.6zm1.8-50.4v31.9h106.6v-31.9zM54 137.1v11.3h11.5v-11.3zM56.9 98h79.2c-.9-23.2-18.5-36-39.6-36S57.8 74.8 56.9 98zm12.2 39.1v11.3h18v-11.3zm21.6 0v11.3h11.6v-11.3zm48.8-12.3H95.6a1.8 1.8 0 0 1 0-3.6h43.9a1.8 1.8 0 1 1 0 3.6zm-33.6 12.3v11.3h18v-11.3zm21.6 0v11.3H139v-11.3z"/></svg>