<svg xmlns="http://www.w3.org/2000/svg" id="Layer_1" width="193" height="223" viewBox="0 0 193 223"><path fill="#fff" d="M94.7 111.3V75l-25.9 36.3h25.9zm-48.4 17.1h48.4v19.98H46.3zm52-57.2v40.1H148a53.6 53.6 0 0 0-49.7-40.1zm0 57.2h8.1v19.98h-8.1zm-5.4-57c-23 1.4-42.3 18.1-47.9 39.9h19.3zm17.1 57h36.7v19.98H110z"/><path fill="#fff" d="M96.5 1.9L1.6 56.7v109.6l94.9 54.8 94.9-54.8V56.7zm77.6 126.5h-23.8v21.8a1.7 1.7 0 0 1-1.8 1.8h-104a1.7 1.7 0 0 1-1.8-1.8v-21.8H18.9a1.8 1.8 0 1 1 0-3.6h13.5v-11.7a1.7 1.7 0 0 1 1.8-1.8h7a57.2 57.2 0 0 1 55.1-43.7c.2-.2.4-.2.7 0a57 57 0 0 1 54.8 43.7h7a1.7 1.7 0 0 1 1.8 1.8v11.7h13.5a1.8 1.8 0 1 1 0 3.6z"/><path fill="#fff" d="M36 114.9h121v9.9H36z"/></svg>