<svg id="Layer_1" data-name="Layer 1" xmlns="http://www.w3.org/2000/svg" width="193" height="223" viewBox="0 0 193 223"><title>super-domes</title><polygon points="96.5 1.9 191.4 56.7 191.4 166.3 96.5 221.1 1.6 166.3 1.6 56.7 96.5 1.9"/><path d="M41.4,152a1.8,1.8,0,1,1,0-3.6h9V137.1h-9a1.7,1.7,0,0,1-1.8-1.8V99.8A1.7,1.7,0,0,1,41.4,98H53.3c.9-25.6,20-39.6,43.2-39.6s42.3,14,43.2,39.6h11.9a1.7,1.7,0,0,1,1.8,1.8v35.5a1.7,1.7,0,0,1-1.8,1.8h-9v11.3h9a1.8,1.8,0,1,1,0,3.6Zm1.8-50.4v31.9H149.8V101.6ZM54,137.1v11.3H65.5V137.1ZM56.9,98h79.2c-.9-23.2-18.5-36-39.6-36S57.8,74.8,56.9,98Zm12.2,39.1v11.3h18V137.1Zm21.6,0v11.3h11.6V137.1Zm48.8-12.3H95.6a1.8,1.8,0,0,1,0-3.6h43.9a1.8,1.8,0,1,1,0,3.6Zm-33.6,12.3v11.3h18V137.1Zm21.6,0v11.3H139V137.1Z" fill="#fff"/></svg>